<svg width="1440" height="960" viewBox="0 0 1440 960" fill="none" xmlns="http://www.w3.org/2000/svg">
<rect width="1440" height="960" fill="#232424"/>
<rect y="200.151" width="456.995" height="10.4648" fill="url(#paint0_linear_34_1386)"/>
<rect x="4.15527" y="735.95" width="461.149" height="17.7902" fill="url(#paint1_linear_34_1386)"/>
<rect x="456.709" y="203.846" width="201.808" height="8.10127" transform="rotate(-90 456.709 203.846)" fill="url(#paint2_linear_34_1386)" fill-opacity="0.39"/>
<rect x="1178.73" width="198.75" height="10.1266" transform="rotate(90 1178.73 0)" fill="url(#paint3_linear_34_1386)" fill-opacity="0.39"/>
<rect x="1178.73" y="416.865" width="261.266" height="7.13462" fill="url(#paint4_linear_34_1386)" fill-opacity="0.39"/>
<rect x="1178.84" y="199.104" width="221.854" height="22.8497" transform="rotate(90 1178.84 199.104)" fill="url(#paint5_linear_34_1386)" fill-opacity="0.39"/>
<rect x="675.443" y="744.039" width="293.671" height="23.4423" fill="url(#paint6_linear_34_1386)" fill-opacity="0.39"/>
<rect x="969.038" y="744.322" width="326.503" height="22.8498" transform="rotate(-90 969.038 744.322)" fill="url(#paint7_linear_34_1386)" fill-opacity="0.39"/>
<rect x="675.443" y="954" width="209.962" height="22.2785" transform="rotate(-90 675.443 954)" fill="url(#paint8_linear_34_1386)" fill-opacity="0.39"/>
<rect x="465.303" y="204.337" width="531.613" height="22.8497" transform="rotate(90 465.303 204.337)" fill="url(#paint9_linear_34_1386)" fill-opacity="0.39"/>
<rect x="969.038" y="420.959" width="221.854" height="22.8497" transform="rotate(-90 969.038 420.959)" fill="url(#paint10_linear_34_1386)" fill-opacity="0.39"/>
<rect x="967.999" y="200.151" width="209.802" height="23.0226" fill="url(#paint11_linear_34_1386)" fill-opacity="0.39"/>
<rect width="234.729" height="8.37186" transform="matrix(1 0 0 -1 465.303 204.337)" fill="url(#paint12_linear_34_1386)" fill-opacity="0.39"/>
<path d="M968.102 3.05811L968.102 200.789H976.203L976.203 3.05811L968.102 3.05811Z" fill="url(#paint13_linear_34_1386)" fill-opacity="0.39"/>
<path d="M699.747 201.808L699.747 4.07684L691.646 4.07684L691.646 201.808L699.747 201.808Z" fill="url(#paint14_linear_34_1386)" fill-opacity="0.39"/>
<defs>
<linearGradient id="paint0_linear_34_1386" x1="0" y1="205.383" x2="456.995" y2="205.383" gradientUnits="userSpaceOnUse">
<stop stop-color="white" stop-opacity="0"/>
<stop offset="0.52" stop-opacity="0"/>
<stop offset="1" stop-opacity="0.4"/>
</linearGradient>
<linearGradient id="paint1_linear_34_1386" x1="4.15527" y1="744.845" x2="465.305" y2="744.845" gradientUnits="userSpaceOnUse">
<stop stop-color="white" stop-opacity="0"/>
<stop offset="0.52" stop-opacity="0"/>
<stop offset="1" stop-opacity="0.4"/>
</linearGradient>
<linearGradient id="paint2_linear_34_1386" x1="563.35" y1="213.973" x2="563.35" y2="203.846" gradientUnits="userSpaceOnUse">
<stop stop-opacity="0.23"/>
<stop offset="0.610814"/>
</linearGradient>
<linearGradient id="paint3_linear_34_1386" x1="1283.76" y1="12.6582" x2="1283.76" y2="1.16017e-06" gradientUnits="userSpaceOnUse">
<stop offset="0.47" stop-opacity="0"/>
<stop offset="1"/>
</linearGradient>
<linearGradient id="paint4_linear_34_1386" x1="1316.79" y1="425.784" x2="1316.79" y2="416.865" gradientUnits="userSpaceOnUse">
<stop offset="0.315" stop-opacity="0"/>
<stop offset="1"/>
</linearGradient>
<linearGradient id="paint5_linear_34_1386" x1="1296.07" y1="227.666" x2="1296.07" y2="199.104" gradientUnits="userSpaceOnUse">
<stop offset="0.246459" stop-opacity="0"/>
<stop offset="0.659333"/>
</linearGradient>
<linearGradient id="paint6_linear_34_1386" x1="817.145" y1="794.653" x2="817.145" y2="740.309" gradientUnits="userSpaceOnUse">
<stop offset="0.57449" stop-opacity="0"/>
<stop offset="1"/>
</linearGradient>
<linearGradient id="paint7_linear_34_1386" x1="1126.58" y1="793.657" x2="1126.58" y2="740.687" gradientUnits="userSpaceOnUse">
<stop offset="0.57449" stop-opacity="0"/>
<stop offset="1"/>
</linearGradient>
<linearGradient id="paint8_linear_34_1386" x1="776.753" y1="1002.1" x2="776.753" y2="950.456" gradientUnits="userSpaceOnUse">
<stop offset="0.57449" stop-opacity="0"/>
<stop offset="1"/>
</linearGradient>
<linearGradient id="paint9_linear_34_1386" x1="721.815" y1="253.672" x2="721.815" y2="200.702" gradientUnits="userSpaceOnUse">
<stop offset="0.57449" stop-opacity="0"/>
<stop offset="1"/>
</linearGradient>
<linearGradient id="paint10_linear_34_1386" x1="1086.27" y1="449.521" x2="1086.27" y2="420.959" gradientUnits="userSpaceOnUse">
<stop offset="0.455" stop-opacity="0"/>
<stop offset="0.86"/>
</linearGradient>
<linearGradient id="paint11_linear_34_1386" x1="1078.86" y1="248.812" x2="1078.86" y2="200.151" gradientUnits="userSpaceOnUse">
<stop offset="0.455" stop-opacity="0"/>
<stop offset="0.86"/>
</linearGradient>
<linearGradient id="paint12_linear_34_1386" x1="124.037" y1="10.4648" x2="124.037" y2="9.59135e-07" gradientUnits="userSpaceOnUse">
<stop stop-opacity="0.23"/>
<stop offset="0.610814"/>
</linearGradient>
<linearGradient id="paint13_linear_34_1386" x1="979.747" y1="95.0616" x2="969.621" y2="95.0616" gradientUnits="userSpaceOnUse">
<stop offset="0.249132" stop-color="white" stop-opacity="0"/>
<stop offset="0.690232" stop-opacity="0.65"/>
</linearGradient>
<linearGradient id="paint14_linear_34_1386" x1="688.101" y1="109.804" x2="698.228" y2="109.804" gradientUnits="userSpaceOnUse">
<stop offset="0.46" stop-opacity="0"/>
<stop offset="1" stop-opacity="0.65"/>
</linearGradient>
</defs>
</svg>
